<?xml version="1.0" encoding="utf-8"?>
<!-- Generator: Adobe Illustrator 25.4.1, SVG Export Plug-In . SVG Version: 6.00 Build 0)  -->
<svg version="1.1" id="Layer_1" xmlns="http://www.w3.org/2000/svg" xmlns:xlink="http://www.w3.org/1999/xlink" x="0px" y="0px"
	 viewBox="0 0 75.4 85.8" style="enable-background:new 0 0 75.4 85.8;" xml:space="preserve">
<style type="text/css">
	.st0{fill:#FFFFFF;}
	.st1{fill:#990000;}
	.st2{fill:#011F5B;}
</style>
<g id="Shield">
	<g id="Shield-2">
		<path class="st0" d="M75.4,0H0v37.6c0,16.4,9,28.2,16.6,35.3c8.4,7.8,17.6,12.2,20.7,12.9l0.4,0.1l0.4-0.1
			c3.1-0.7,12.3-5.1,20.7-12.9c7.6-7.1,16.7-18.9,16.6-35.3C75.4,37.6,75.4,0,75.4,0z"/>
		<path class="st1" d="M70.7,15.7L70.7,15.7c0.1,0.1,0.2,0.2,0.3,0.3c0.2,0.3,0.2,0.6,0,0.9c-0.1,0.1-0.2,0.2-0.3,0.3
			c-0.2,0.1-0.3,0.3-0.3,0.5V19H54.6v-1.3c0-0.2-0.2-0.4-0.3-0.5C54.2,17.1,54,17,54,16.9c-0.2-0.3-0.1-0.6,0-0.9
			c0.1-0.1,0.2-0.2,0.3-0.3c0.2-0.1,0.3-0.3,0.3-0.5v-4.3c0-0.2-0.2-0.3-0.3-0.5c-0.1-0.1-0.2-0.2-0.3-0.3c-0.1-0.1-0.1-0.3-0.1-0.4
			c0-0.2,0-0.3,0.1-0.4c0.1-0.1,0.2-0.2,0.3-0.2c0.2-0.1,0.3-0.3,0.3-0.5V7.1h0.2c0.8,0.1,1.6,0,2.3-0.3c0.2-0.1,0.5-0.2,0.7-0.4
			c0.5-0.4,1.2-0.6,1.8-0.6c0.6,0,1.2,0.2,1.8,0.5c0.3,0.2,0.7,0.3,1,0.3h0.1c0.3,0,0.7-0.1,1-0.3c0.6-0.3,1.2-0.4,1.8-0.5
			c0.7,0,1.3,0.2,1.9,0.7c0.2,0.1,0.4,0.3,0.7,0.4c0.7,0.2,1.5,0.3,2.3,0.3h0.2v1.4c0,0.2,0.2,0.4,0.3,0.5C70.8,9,70.9,9.1,71,9.2
			c0.1,0.1,0.1,0.3,0.1,0.4c0,0.2,0,0.3-0.1,0.4c-0.1,0.1-0.2,0.2-0.3,0.3c-0.2,0.1-0.3,0.3-0.3,0.5v4.4
			C70.4,15.5,70.6,15.6,70.7,15.7L70.7,15.7z M51.4,18c-0.9,1.2-2.2,2.1-3.7,2.5c-0.5,0.1-0.9,0.1-1.4,0.1l0,0c-2.5,0-4.7-1.1-7-2.3
			l-0.9-0.5c-1.5-0.8-3.5-1.9-5.3-1.9c-0.5,0-1,0.1-1.4,0.3h-0.1v0.1c0,0.2,0,0.4-0.1,0.6c-0.4,0.7-0.9,1.4-1.6,1.9
			c-1.1,0.9-2.5,1.5-3.9,1.5c-0.2,0-0.4,0-0.6-0.1c-0.3-0.1-0.5-0.3-0.7-0.5c-0.1-0.1-0.2-0.2-0.2-0.4c0-0.1-0.1-0.2-0.1-0.4v-0.1
			h-0.1c-0.5-0.1-1-0.5-1-1c0.1-0.4,0.2-0.7,0.5-1c0.4-0.5,0.7-0.9,0.2-1.4l-0.2-0.1c-0.1-0.1-0.2-0.1-0.2-0.2
			c-0.5-0.5-0.2-1.6,0-2.3v-0.1c0.2-0.8,0.5-1.6,0.9-2.3c0.5-1.2,1.2-2.2,2.2-3.1h0.1c0,0,0,0,0.1,0L27,7.8L27.2,8l0.1-0.3
			c0.2-0.7,0.6-1.2,1.3-1.5c0.5-0.2,1.1,0,1.5,0.3l0.1,0.1l0.1-0.1c0.2-0.4,0.6-0.7,1.1-0.7c0.5,0,1.1,0.3,1.4,0.7l0.1,0.1L33,6.5
			c0.5-0.5,1.1-0.7,1.8-0.7c0.5,0.1,0.9,0.5,1.1,1V7L36,6.9c0.5-0.3,1.1-0.3,1.6,0c0.3,0.2,0.5,0.6,0.4,1v0.2h0.2
			c0.6-0.2,1.3,0,1.8,0.4c0.3,0.3,0.5,0.8,0.4,1.3v0.2h0.2c0.5-0.1,0.9,0.1,1.2,0.4c0.2,0.3,0.2,0.7,0.1,1v0.1H42
			c0.3,0,0.6,0.2,0.8,0.5c0.1,0.4,0.1,0.8-0.1,1.1v0.1l0.1,0.1c0.3,0.1,0.6,0.4,0.8,0.7c0.2,0.5,0.2,1,0,1.4v0.1l0.1,0.1
			c0.5,0.5,1.1,0.9,1.6,1.3c1,0.8,2.7,1.2,3.8,0.2c0.4-0.4,0.6-1,0.5-1.6c-0.1-0.5-0.5-0.9-1-1c-0.8-0.2-1.5,0.6-2.1,1.4
			c0,0-0.1,0-0.1,0c0,0-0.1,0-0.1-0.1c-0.5-0.9-0.6-2-0.1-2.9c0.5-0.7,1.2-1.1,2-1.2h0.1v-0.1c-0.1-1.1,0.3-2.2,1-3.1
			C50,8,50.9,7.8,51.7,8c0,0,0,0,0.1,0c0,0,0,0.1,0,0.1c-0.8,1.6-0.9,3.4-0.2,5c0,0.2,0.1,0.3,0.1,0.5l0,0
			C52.3,15,52.1,16.6,51.4,18z M21.1,15.7L21.1,15.7c0.1,0.1,0.2,0.2,0.3,0.3c0.2,0.3,0.2,0.6,0,0.9c-0.1,0.1-0.2,0.2-0.3,0.3
			c-0.2,0.1-0.3,0.3-0.3,0.5V19H5v-1.3c0-0.2-0.2-0.4-0.3-0.5c-0.1-0.1-0.2-0.2-0.3-0.3c-0.2-0.3-0.2-0.6,0-0.9
			c0.1-0.1,0.2-0.2,0.3-0.3C4.8,15.6,5,15.5,5,15.3v-4.4c0-0.2-0.2-0.3-0.3-0.5c-0.1-0.1-0.2-0.2-0.3-0.3C4.3,10,4.2,9.8,4.2,9.7
			c0-0.2,0-0.3,0.1-0.4C4.4,9.1,4.5,9.1,4.6,9C4.8,8.9,5,8.7,5,8.5V7.1h0.2c0.8,0.1,1.5,0,2.3-0.3c0.2-0.1,0.5-0.2,0.7-0.4
			C8.7,6.1,9.3,5.8,10,5.8c0.6,0,1.2,0.2,1.8,0.5c0.3,0.2,0.7,0.3,1,0.3h0.1c0.3,0,0.7-0.1,1-0.3c0.6-0.3,1.2-0.4,1.8-0.5
			c0.7,0,1.3,0.2,1.9,0.7c0.2,0.1,0.4,0.3,0.7,0.4c0.7,0.2,1.5,0.3,2.3,0.3h0.2v1.4c0,0.2,0.2,0.4,0.3,0.5c0.1,0.1,0.2,0.2,0.3,0.3
			c0.1,0.1,0.1,0.3,0.1,0.4c0,0.2,0,0.3-0.1,0.4c-0.1,0.1-0.2,0.2-0.3,0.3c-0.2,0.1-0.3,0.3-0.3,0.5v4.4
			C20.8,15.5,20.9,15.6,21.1,15.7L21.1,15.7z M1.9,2c0,0,0.1,21.8,0,21.7h71.6V2H1.9z"/>
		<path class="st2" d="M26.6,14.8c0.3,0,0.5,0.1,0.7,0.3c0.1,0.1,0.1,0.1,0.2,0.2c0.2,0.1,0.2,0.4,0,0.5c0,0,0,0,0,0
			c-0.2,0.1-0.4,0.3-0.5,0.4c-0.3,0.2-0.8,0.6-1.1,0.3c-0.2-0.1,0.2-0.4,0-1S26.2,14.8,26.6,14.8L26.6,14.8z"/>
		<path class="st2" d="M26.7,7.8c-0.8,0.8-1.4,1.8-1.9,2.9c-0.4,0.7-0.7,1.5-0.9,2.2v0.1c-0.1,0.5-0.4,1.6,0,2
			C24,15,24,15,24.1,15.1c0.1,0,0.1,0.1,0.2,0.2c0.8,0.7,0.2,1.4-0.2,1.9c-0.2,0.2-0.4,0.5-0.5,0.8c0,0.5,0.7,0.7,0.9,0.8
			c0.1,0,0.2,0.1,0.2,0.2c0,0.1,0,0.3,0.1,0.4c0,0.1,0.1,0.2,0.2,0.3c0.1,0.2,0.3,0.3,0.5,0.4c0.1,0,0.3,0.1,0.4,0.1
			c1.3-0.1,2.6-0.6,3.6-1.4c0.6-0.4,1.2-1,1.5-1.7c0.1-0.2,0.1-0.3,0.1-0.5l-1-0.2l0,0c-0.1,0-0.2-0.1-0.3-0.2
			c0-0.2,0.1-0.3,0.5-0.6l0.3-0.2c0.5-0.4,1-0.7,1.2-0.9c-0.3-0.3-0.5-0.6-0.7-1c-0.1-0.2-0.3-0.4-0.4-0.6c-0.5-0.6-1.4-0.8-2.1-0.4
			c-0.3,0.2-0.6,0.4-0.8,0.7c-0.2,0.2-0.5,0.4-0.7,0.6c-0.1,0.1-0.3,0-0.3-0.1c-0.1-0.1,0-0.2,0-0.3l0.1-0.1
			c0.3-0.3,1.1-1.1,1.1-1.6C28,10.2,27.5,8.9,26.7,7.8L26.7,7.8z M33.1,15.6c1.8,0,3.8,1.1,5.4,2l0.8,0.5c2.7,1.4,5.4,2.6,8.3,2.1
			c1.4-0.3,2.6-1.1,3.5-2.3c0.7-1.3,0.9-2.8,0.4-4.2l-0.2-0.5c-0.6-1.6-0.6-3.3,0.1-4.9c-0.7-0.1-1.4,0.1-1.9,0.6
			c-0.7,0.8-1.1,1.9-0.9,3c0,0.1-0.1,0.2-0.2,0.2c-0.8,0-1.5,0.4-2,1.1c-0.4,0.7-0.4,1.5-0.1,2.3c0.4-0.6,1.2-1.4,2.1-1.2
			c0.6,0.1,1.1,0.6,1.2,1.2c0.2,0.7,0,1.4-0.6,1.9c-1.2,1-3,0.6-4.2-0.2c-1.5-1.1-2.9-2.4-4.1-3.8c-0.2-0.3-0.5-0.6-0.7-0.8
			c-0.9-1.1-1.8-2.1-2.9-2.9c-1.5-1.1-3.3-1.6-5.1-1.5c-1.4,0-2.9,0.4-4.1,1.1c0.4,0.8,0.7,1.6,0.8,2.5c0,0.1,0,0.3-0.1,0.4
			c0.9-0.5,2-0.2,2.7,0.5c0.2,0.2,0.3,0.4,0.5,0.6c0.2,0.4,0.5,0.8,0.9,1.1c0,0,0.1,0.1,0.1,0.2c0,0.1,0,0.1-0.1,0.2
			c0,0-0.6,0.4-1.4,1l-0.3,0.2h-0.1l0.7,0.1C32,15.7,32.5,15.5,33.1,15.6L33.1,15.6z M46.3,20.7c-2.5,0-4.8-1.1-7.1-2.3L38.3,18
			c-1.9-1-4.7-2.6-6.5-1.6c0,0.2-0.1,0.5-0.1,0.7c-0.4,0.8-1,1.4-1.7,1.9c-1.1,0.9-2.5,1.4-3.9,1.5c-0.2,0-0.5,0-0.7-0.1
			c-0.3-0.1-0.6-0.3-0.8-0.5c-0.1-0.1-0.2-0.3-0.2-0.4c0-0.1-0.1-0.3-0.1-0.4c-0.6-0.1-1-0.6-1.1-1.2c0.1-0.4,0.3-0.8,0.6-1.1
			c0.4-0.5,0.6-0.8,0.2-1.2l-0.2-0.1c-0.1-0.1-0.2-0.1-0.2-0.2c-0.5-0.6-0.2-1.7-0.1-2.4v-0.1c0.2-0.8,0.5-1.6,0.9-2.3
			c0.5-1.2,1.3-2.3,2.2-3.2c0.1,0,0.1,0,0.2,0c0.1,0,0.1,0,0.2,0.1c0,0.1,0.4,0.6,0.8,1.4C29,8.1,30.5,7.7,32,7.6
			C34,7.5,35.9,8,37.5,9.1c1.1,0.9,2.1,1.9,3,3l0.7,0.8c1.2,1.4,2.5,2.6,4,3.8c1,0.7,2.6,1.1,3.6,0.3c0.4-0.4,0.6-0.9,0.4-1.4
			c-0.1-0.4-0.4-0.8-0.8-0.9c-0.8-0.2-1.4,0.6-1.9,1.4c0,0.1-0.1,0.1-0.2,0.1c-0.1,0-0.2-0.1-0.2-0.1c-0.5-1-0.5-2.1-0.1-3.1
			c0.5-0.7,1.3-1.2,2.1-1.3c-0.1-1.2,0.2-2.3,1-3.2c0.7-0.6,1.7-0.8,2.6-0.7c0.1,0,0.2,0,0.2,0.1C52,8,52,8,52,8.1
			c-0.8,1.5-0.8,3.3-0.2,4.9c0,0.2,0.1,0.3,0.1,0.5c0.5,1.5,0.4,3.2-0.4,4.6c-0.9,1.3-2.2,2.2-3.8,2.5
			C47.2,20.7,46.8,20.7,46.3,20.7L46.3,20.7z"/>
		<path class="st2" d="M25.1,19.2c-0.2,0-0.4,0-0.6,0c-0.1,0-0.2-0.1-0.2-0.2c0,0,0,0,0,0c0-0.1,0.1-0.2,0.2-0.2
			c1.4,0.2,2.9-0.3,3.9-1.4c0.1-0.1,0.2-0.1,0.3,0c0.1,0.1,0.1,0.2,0,0.3C27.8,18.6,26.5,19.2,25.1,19.2L25.1,19.2z"/>
		<path class="st2" d="M43.4,15.8L43.4,15.8c-0.2-0.1-0.2-0.2-0.2-0.3c0.2-0.4,0.3-0.9,0.1-1.3c-0.2-0.3-0.5-0.5-0.8-0.6
			c-0.1,0-0.1-0.1-0.1-0.1c0-0.1,0-0.1,0-0.2c0.1-0.4,0.2-0.8,0.2-1.1c-0.1-0.3-0.6-0.4-0.8-0.4c-0.1,0-0.2-0.1-0.2-0.3c0,0,0,0,0,0
			c0.1-0.3,0.2-0.6,0-0.9c-0.3-0.5-1.2-0.3-1.2-0.3c-0.1,0-0.2,0-0.2-0.1c0-0.1,0-0.1,0-0.2c0.1-0.4,0-0.9-0.2-1.3
			C39.3,8,38,8.4,38,8.4c-0.1,0-0.2,0-0.2-0.1c0-0.1,0-0.1,0-0.2c0,0,0.2-0.7-0.2-1c-0.5-0.2-1.1-0.2-1.6,0.2c-0.1,0-0.1,0-0.2,0
			c-0.1,0-0.1-0.1-0.1-0.2c0,0-0.1-0.9-0.9-1c-0.6,0-1.2,0.3-1.7,0.7c0,0-0.1,0.1-0.2,0.1c-0.1,0-0.1,0-0.2-0.1
			c-0.3-0.4-0.8-0.7-1.3-0.7c-0.4,0-0.8,0.3-1,0.8c0,0.1-0.1,0.1-0.1,0.1c-0.1,0-0.1,0-0.2-0.1c-0.4-0.4-0.9-0.5-1.4-0.4
			c-0.9,0.3-1.1,1.4-1.2,1.8l0,0c0,0.1-0.1,0.2-0.2,0.1c-0.1,0-0.2-0.1-0.2-0.2c0,0,0,0,0,0l0,0c0.1-0.9,0.7-1.7,1.5-2.1
			c0.6-0.2,1.2,0,1.6,0.3c0.3-0.5,0.7-0.7,1.2-0.8c0.6,0,1.2,0.3,1.6,0.8c0.5-0.5,1.2-0.7,1.9-0.7c0.5,0.1,1,0.5,1.1,1.1
			c0.5-0.3,1.2-0.3,1.7,0c0.4,0.2,0.6,0.7,0.5,1.1c0.7-0.2,1.4,0,1.9,0.4c0.3,0.4,0.5,0.9,0.4,1.4c0.5-0.1,1.1,0.1,1.4,0.5
			c0.2,0.3,0.2,0.7,0.1,1.1c0.4,0.1,0.7,0.3,0.9,0.6c0.1,0.4,0.1,0.8-0.1,1.2c0.4,0.1,0.7,0.4,0.8,0.7c0.2,0.6,0.2,1.2-0.1,1.7
			C43.5,15.7,43.4,15.7,43.4,15.8L43.4,15.8z"/>
		<path class="st2" d="M42.3,18.7L42.3,18.7c-0.1,0-0.2-0.1-0.2-0.2c0,0,0,0,0,0c0.1-0.8-0.4-1-0.8-1.1c-0.1,0-0.2-0.1-0.3-0.1
			c-0.2-0.1-0.2-0.4-0.2-0.7c0-0.3-0.1-0.6-0.2-0.9c-0.4-0.4-1.2-0.1-1.2-0.1c-0.1,0-0.1,0-0.2,0c-0.1,0-0.1-0.1-0.1-0.2
			c0.1-0.5-0.1-0.9-0.4-1.3c-0.5-0.3-1-0.3-1.5-0.2c-0.1,0-0.1,0-0.2,0c-0.1,0-0.1-0.1-0.1-0.2c0.1-0.5-0.2-1-0.6-1.2
			c-0.3-0.2-0.7-0.3-1.1-0.1c-0.7,0.5-1.6,0.5-2.2-0.1c-0.2-0.2-0.6-0.3-0.9-0.2c-0.4,0.2-0.8,0.5-0.9,0.9c-0.1,0.1-0.2,0.2-0.3,0.1
			c-0.1-0.1-0.1-0.2-0.1-0.3c0.2-0.5,0.7-0.9,1.2-1.1c0.4-0.1,0.9,0,1.2,0.3c0.8,0.6,1,0.5,1.7,0.1c0.5-0.2,1.1-0.2,1.5,0.1
			c0.5,0.3,0.8,0.8,0.8,1.4c0.6-0.1,1.1,0,1.6,0.3c0.3,0.3,0.5,0.8,0.5,1.3c0.5-0.1,1,0,1.3,0.4c0.3,0.3,0.4,0.7,0.4,1.2
			c0,0.1,0,0.2,0,0.3l0.2,0.1c0.7,0.1,1.2,0.8,1.1,1.5c0,0,0,0,0,0.1C42.5,18.6,42.4,18.7,42.3,18.7L42.3,18.7z"/>
		<path class="st2" d="M21.2,16.5c0,0.1,0,0.2-0.1,0.2c-0.1,0.1-0.1,0.2-0.2,0.2c-0.3,0.2-0.4,0.4-0.5,0.7v1H5.3v-1
			c0-0.3-0.2-0.5-0.5-0.7c-0.1-0.1-0.2-0.1-0.2-0.2c-0.1-0.1-0.1-0.2-0.1-0.2l0,0c0-0.1,0-0.2,0.1-0.3c0.1-0.1,0.1-0.2,0.2-0.3
			c0.3-0.2,0.4-0.4,0.4-0.7v-4.4c0-0.3-0.2-0.6-0.4-0.7C4.7,10.1,4.7,10,4.6,9.9C4.5,9.9,4.5,9.8,4.5,9.7l0,0c0-0.1,0-0.2,0.1-0.3
			c0.1-0.1,0.1-0.2,0.2-0.2C5.1,9,5.3,8.8,5.3,8.5v-1l0,0c0.4,0,0.8,0,1.1,0v10H12c0.1,0.5,0.6,0.8,1.1,0.7c0.3-0.1,0.6-0.3,0.7-0.7
			h5.5v-10c0.4,0,0.7,0,1.1,0l0,0v1c0,0.3,0.2,0.6,0.5,0.7c0.1,0.1,0.2,0.1,0.2,0.2c0.1,0.1,0.1,0.2,0.1,0.3l0,0
			c0,0.1,0,0.2-0.1,0.3c-0.1,0.1-0.2,0.2-0.2,0.2c-0.3,0.1-0.4,0.4-0.5,0.7v4.4c0,0.3,0.2,0.6,0.5,0.7c0.1,0.1,0.2,0.1,0.2,0.2
			C21.2,16.3,21.2,16.4,21.2,16.5L21.2,16.5L21.2,16.5z M7.6,7.2C7.9,7,8.1,6.9,8.3,6.8C8.8,6.4,9.4,6.2,10,6.2
			c0.6,0,1.1,0.2,1.7,0.4c0.3,0.1,0.7,0.2,1,0.3v8.8h-0.1c-0.6,0.1-1.2,0.2-1.7,0.4l-0.7,0.2c-0.7,0.2-1.3,0.2-2,0.2
			c-0.4,0-0.8,0-1.2,0.1V7.4C7.2,7.3,7.5,7.3,7.6,7.2L7.6,7.2z M14.1,6.6c0.5-0.3,1.1-0.4,1.7-0.4c0.6,0,1.2,0.2,1.7,0.6
			c0.2,0.2,0.5,0.3,0.7,0.4c0.2,0.1,0.4,0.2,0.7,0.2v9.3c-0.4-0.1-0.8-0.1-1.2-0.1c-0.7,0-1.3,0-2-0.2l-0.7-0.2
			c-0.6-0.2-1.1-0.4-1.7-0.4l0,0V6.9C13.5,6.8,13.8,6.7,14.1,6.6L14.1,6.6z M21.2,15.6c-0.2-0.1-0.3-0.2-0.3-0.4v-4.4
			c0-0.1,0.1-0.2,0.3-0.4c0.1-0.1,0.2-0.2,0.3-0.3c0.2-0.3,0.2-0.7,0-1c-0.1-0.1-0.2-0.2-0.3-0.3c-0.2-0.1-0.3-0.2-0.3-0.4V7h-0.4
			c-0.8,0.1-1.5,0-2.2-0.2c-0.2-0.1-0.4-0.2-0.6-0.4c-0.6-0.4-1.2-0.6-1.9-0.7c-0.6,0-1.3,0.2-1.9,0.5c-0.3,0.2-0.7,0.2-1,0.3h-0.1
			c-0.3,0-0.7-0.1-1-0.3c-0.6-0.3-1.2-0.5-1.8-0.5c-0.7,0-1.4,0.3-1.9,0.7C7.9,6.5,7.6,6.6,7.4,6.7C6.7,6.9,5.9,7,5.2,7H4.8v1.5
			c0,0.1-0.1,0.2-0.3,0.4C4.4,8.9,4.3,9,4.2,9.2C4.1,9.3,4.1,9.5,4.1,9.7c0,0.2,0,0.4,0.2,0.5c0.1,0.1,0.2,0.2,0.3,0.3
			c0.2,0.1,0.3,0.2,0.3,0.4v4.4c0,0.1-0.1,0.2-0.3,0.4c-0.1,0.1-0.2,0.2-0.3,0.3c-0.1,0.2-0.2,0.3-0.2,0.5c0,0.2,0,0.4,0.2,0.5
			c0.1,0.1,0.2,0.2,0.3,0.3c0.2,0.1,0.3,0.2,0.3,0.4v1.5h16.1v-1.5c0-0.1,0.1-0.2,0.3-0.4c0.1-0.1,0.2-0.2,0.3-0.3
			c0.1-0.2,0.2-0.3,0.1-0.5c0-0.2-0.1-0.4-0.1-0.5C21.5,15.8,21.3,15.7,21.2,15.6L21.2,15.6z"/>
		<path class="st2" d="M70.9,16.5c0,0.1,0,0.2-0.1,0.2c-0.1,0.1-0.1,0.2-0.2,0.2c-0.3,0.2-0.4,0.4-0.4,0.7v1H54.9v-1
			c0-0.3-0.2-0.6-0.5-0.7c-0.1-0.1-0.2-0.1-0.2-0.2c-0.1-0.1-0.1-0.2-0.1-0.2l0,0c0-0.1,0-0.2,0.1-0.3c0.1-0.1,0.1-0.2,0.2-0.2
			c0.3-0.2,0.4-0.4,0.5-0.7v-4.4c0-0.3-0.2-0.6-0.5-0.7c-0.1-0.1-0.2-0.1-0.2-0.2c-0.1-0.1-0.1-0.2-0.1-0.3l0,0c0-0.1,0-0.2,0.1-0.3
			c0.1-0.1,0.1-0.2,0.2-0.2c0.3-0.2,0.4-0.4,0.5-0.7v-1l0,0c0.4,0,0.8,0,1.2,0v10h5.5c0.1,0.5,0.7,0.8,1.1,0.6
			c0.3-0.1,0.6-0.3,0.6-0.6h5.5v-10c0.4,0,0.8,0,1.1,0l0,0v1c0,0.3,0.2,0.6,0.4,0.7c0.1,0.1,0.2,0.1,0.2,0.2
			c0.1,0.1,0.1,0.2,0.1,0.3l0,0c0,0.1,0,0.2-0.1,0.3c-0.1,0.1-0.1,0.2-0.2,0.2c-0.3,0.1-0.4,0.4-0.4,0.7v4.4c0,0.3,0.2,0.6,0.4,0.7
			c0.1,0.1,0.2,0.1,0.2,0.2C70.8,16.3,70.8,16.4,70.9,16.5L70.9,16.5L70.9,16.5z M57.2,7.2C57.5,7,57.7,6.9,58,6.8
			c0.5-0.4,1.1-0.6,1.7-0.6c0.6,0,1.2,0.2,1.7,0.4c0.3,0.1,0.7,0.2,1,0.3v8.8l0,0c-0.6,0.1-1.2,0.2-1.7,0.4l-0.7,0.2
			c-0.7,0.2-1.3,0.2-2,0.2c-0.4,0-0.8,0-1.2,0.1V7.4c0.2,0,0.5-0.1,0.7-0.2L57.2,7.2z M63.7,6.6c0.5-0.3,1.1-0.4,1.7-0.4
			c0.6,0,1.2,0.2,1.6,0.6c0.2,0.2,0.5,0.3,0.7,0.4c0.2,0.1,0.4,0.2,0.7,0.2v9.3c-0.4-0.1-0.8-0.1-1.2-0.1c-0.7,0-1.3,0-2-0.2
			l-0.7-0.2c-0.6-0.2-1.1-0.4-1.7-0.4l0,0V6.9C63.1,6.8,63.4,6.7,63.7,6.6L63.7,6.6z M70.8,15.6c-0.2-0.1-0.3-0.2-0.3-0.4v-4.4
			c0-0.1,0.1-0.2,0.3-0.4c0.1-0.1,0.2-0.2,0.3-0.3c0.1-0.1,0.2-0.3,0.2-0.5c0-0.2,0-0.4-0.2-0.5C71.1,9,71,8.9,70.8,8.8
			c-0.2-0.1-0.3-0.2-0.3-0.4V7h-0.4c-0.7,0-1.5-0.1-2.2-0.3c-0.2-0.1-0.4-0.2-0.7-0.4c-0.6-0.4-1.2-0.6-1.9-0.7
			c-0.6,0-1.3,0.2-1.9,0.5c-0.3,0.2-0.7,0.2-1,0.3h-0.1c-0.3,0-0.7-0.1-1-0.3c-0.6-0.3-1.2-0.4-1.9-0.5c-0.7,0-1.4,0.3-1.9,0.7
			c-0.2,0.1-0.4,0.3-0.6,0.4C56.3,6.9,55.5,7,54.8,7h-0.3v1.5c0,0.1-0.1,0.2-0.3,0.4C54,8.9,53.9,9,53.8,9.2c-0.2,0.3-0.2,0.7,0,1
			c0.1,0.1,0.2,0.2,0.3,0.3c0.2,0.1,0.3,0.2,0.3,0.4v4.4c0,0.1-0.1,0.2-0.3,0.4c-0.1,0.1-0.2,0.2-0.3,0.3c-0.1,0.2-0.1,0.3-0.2,0.5
			c0,0.2,0.1,0.4,0.2,0.5c0.1,0.1,0.2,0.2,0.3,0.3c0.2,0.1,0.3,0.2,0.3,0.4v1.5h16.1v-1.4c0-0.1,0.1-0.2,0.3-0.4
			c0.1-0.1,0.2-0.2,0.3-0.3c0.1-0.1,0.2-0.3,0.2-0.5c0-0.2,0-0.4-0.2-0.5C71.1,15.8,71,15.7,70.8,15.6L70.8,15.6z"/>
		<path class="st2" d="M68.9,55.3L37.7,25.2L6.5,55.3c-2.7-5.5-4-11.6-4-17.7V24.2H73v13.4C73,43.7,71.6,49.8,68.9,55.3L68.9,55.3z
			 M59,58.5c-2.4,2.4-6.4,2.4-8.8,0c-2.4-2.4-2.4-6.4,0-8.8s6.4-2.4,8.8,0c0,0,0,0,0,0C61.4,52.1,61.4,56,59,58.5
			C59,58.4,59,58.4,59,58.5z M31.5,38.7c0-3.4,2.8-6.2,6.2-6.2c3.4,0,6.2,2.8,6.2,6.2c0,3.4-2.8,6.2-6.2,6.2c0,0,0,0,0,0
			C34.3,44.9,31.5,42.1,31.5,38.7z M57.1,71.1C48.7,78.8,40,82.7,37.7,83.3c-2.3-0.6-11-4.5-19.4-12.3l-0.6-0.6l20-21.2l20,21.2
			L57.1,71.1L57.1,71.1z M16.4,58.5c-2.4-2.4-2.4-6.4,0-8.8c2.4-2.4,6.4-2.4,8.8,0s2.4,6.4,0,8.8c0,0,0,0,0,0
			C22.8,60.9,18.9,60.9,16.4,58.5C16.4,58.5,16.4,58.5,16.4,58.5z M72.9,2.5v20.8H2.4V2.4L72.9,2.5z M73.9,1.5H1.4v36.1
			c0,15.8,8.8,27.3,16.2,34.2c8.1,7.5,17.2,11.9,20,12.6h0.1c2.9-0.6,12-5.1,20-12.6C65.2,64.9,74,53.4,74,37.6L73.9,1.5L73.9,1.5z"
			/>
	</g>
</g>
</svg>
